<svg width="200" height="200" xmlns="http://www.w3.org/2000/svg">
  <!-- 背景 -->
  <rect width="200" height="200" fill="#f0f0f0"/>

  <!-- 二维码模拟图案 -->
  <rect x="20" y="20" width="30" height="30" fill="#000"/>
  <rect x="60" y="20" width="10" height="10" fill="#000"/>
  <rect x="80" y="20" width="10" height="10" fill="#000"/>
  <rect x="100" y="20" width="10" height="10" fill="#000"/>
  <rect x="150" y="20" width="30" height="30" fill="#000"/>

  <rect x="20" y="60" width="10" height="10" fill="#000"/>
  <rect x="40" y="60" width="10" height="10" fill="#000"/>
  <rect x="70" y="60" width="10" height="10" fill="#000"/>
  <rect x="90" y="60" width="20" height="10" fill="#000"/>
  <rect x="150" y="60" width="10" height="10" fill="#000"/>
  <rect x="170" y="60" width="10" height="10" fill="#000"/>

  <rect x="20" y="80" width="10" height="10" fill="#000"/>
  <rect x="40" y="80" width="10" height="10" fill="#000"/>
  <rect x="60" y="80" width="30" height="10" fill="#000"/>
  <rect x="110" y="80" width="20" height="10" fill="#000"/>
  <rect x="150" y="80" width="10" height="10" fill="#000"/>
  <rect x="170" y="80" width="10" height="10" fill="#000"/>

  <rect x="20" y="100" width="10" height="10" fill="#000"/>
  <rect x="40" y="100" width="10" height="10" fill="#000"/>
  <rect x="70" y="100" width="20" height="10" fill="#000"/>
  <rect x="100" y="100" width="10" height="10" fill="#000"/>
  <rect x="120" y="100" width="10" height="10" fill="#000"/>
  <rect x="150" y="100" width="10" height="10" fill="#000"/>
  <rect x="170" y="100" width="10" height="10" fill="#000"/>

  <rect x="20" y="120" width="30" height="10" fill="#000"/>
  <rect x="60" y="120" width="10" height="10" fill="#000"/>
  <rect x="80" y="120" width="30" height="10" fill="#000"/>
  <rect x="120" y="120" width="20" height="10" fill="#000"/>
  <rect x="150" y="120" width="30" height="10" fill="#000"/>

  <rect x="20" y="150" width="30" height="30" fill="#000"/>
  <rect x="60" y="150" width="10" height="10" fill="#000"/>
  <rect x="80" y="150" width="10" height="10" fill="#000"/>
  <rect x="100" y="150" width="20" height="10" fill="#000"/>
  <rect x="150" y="150" width="30" height="30" fill="#000"/>

  <!-- 中心图标 (微信 logo) -->
  <circle cx="100" cy="100" r="15" fill="#09BB07"/>
  <text x="100" y="108" font-size="20" font-weight="bold" fill="white" text-anchor="middle">微</text>

  <!-- 底部文字 -->
  <text x="100" y="195" font-size="12" fill="#666" text-anchor="middle">微信支付二维码占位图</text>
</svg>
